<?xml version="1.0" encoding="UTF-8"?>
<svg id="_Слой_1" data-name="Слой_1" xmlns="http://www.w3.org/2000/svg" version="1.1" viewBox="0 0 512 512">
  <!-- Generator: Adobe Illustrator 29.1.0, SVG Export Plug-In . SVG Version: 2.1.0 Build 142)  -->
  <path d="M507.6,372.5l-52.5-26.2-33.4-86.9c-.8-2.1-2.4-3.7-4.5-4.6l-207.2-82.8c-3-1.2-6.3-.5-8.6,1.8l-27.6,27.6c-2.2,2.3-2.9,5.6-1.7,8.6l82.8,207.2c.8,2.1,2.5,3.7,4.6,4.5l86.9,33.4,26.2,52.5c1.1,2.3,3.3,4,5.9,4.4.4,0,.9,0,1.3,0,2.1,0,4.1-.9,5.6-2.4l124.3-124.3c1.9-1.8,2.7-4.4,2.4-6.9-.4-2.6-2.1-4.8-4.4-5.9h0ZM188.8,208.9l4.4-4.4,103.2,103.2c-15,21.2-9.9,50.6,11.3,65.6s50.6,9.9,65.6-11.3,9.9-50.6-11.3-65.6c-16.3-11.5-38-11.5-54.3,0l-103.2-103.2,4.4-4.4,199.1,79.6,31.4,81.7-89.3,89.3-81.7-31.4-79.6-199.1ZM334.8,303.7c17.2,0,31.1,14,31,31.1,0,17.2-14,31.1-31.1,31-17.2,0-31.1-14-31-31.1,0-8.2,3.3-16.1,9.1-22,5.8-5.8,13.8-9.1,22-9.1ZM381.9,490.5l-20-40,88.5-88.5,40,20-108.5,108.5Z"/>
  <path d="M153,428c-3.2-3-8.1-3-11.3,0l-10.2,10.2c-55.6-75.4-57.2-177.8-4-255,19.9,10.9,44.8,3.7,55.7-16.2,6.7-12.3,6.8-27.1,0-39.4,77.1-53.2,179.5-51.6,255,4l-10.3,10c-1.5,1.5-2.3,3.5-2.3,5.6,0,2.1.8,4.2,2.3,5.7l35.3,35c3.1,3.1,8.2,3.1,11.3,0l35.1-35.1c3.1-3.1,3.1-8.2,0-11.3,0,0,0,0,0,0l-35.1-35.1c-3.1-3.1-8.2-3.1-11.3,0l-13.6,13.5c-68-51.2-158.4-61.7-236.4-27.5l46.1-46c12.2,5.8,26.9.7,32.7-11.6,5.8-12.2.7-26.9-11.6-32.7-12.2-5.8-26.9-.7-32.7,11.6-3.2,6.8-3.2,14.6.1,21.4l-77.8,78c-18.8-12.6-44.4-7.6-57,11.2-9.3,13.8-9.3,31.9,0,45.8l-78,77.8c-12.2-5.9-26.9-.9-32.8,11.3-5.9,12.2-.9,26.9,11.3,32.8,12.2,5.9,26.9.9,32.8-11.3,3.3-6.8,3.3-14.7,0-21.5l46.1-46c-34.3,78-23.8,168.3,27.4,236.4l-13.5,13.6c-3.1,3.1-3.1,8.2,0,11.3l35.1,35.1c1.5,1.5,3.5,2.4,5.6,2.4,2.1,0,4.2-.8,5.7-2.4l35.1-35.1c3.1-3.1,3.1-8.2,0-11.3l-35-35.3ZM469,123.4l23.8,23.8-23.8,23.8-23.8-23.8,23.8-23.8ZM264,18.5c3.3-3.3,8.7-3.4,12,0,3.3,3.3,3.4,8.7,0,12-3.3,3.3-8.7,3.4-12,0,0,0,0,0,0,0-3.3-3.3-3.3-8.7,0-12,0,0,0,0,0,0ZM129.6,129.6c9.7-9.8,25.6-9.8,35.4,0,0,0,0,0,0,0,9.8,9.8,9.8,25.7,0,35.5-9.8,9.8-25.7,9.8-35.5,0-9.8-9.8-9.8-25.7,0-35.5,0,0,0,0,0,0ZM30.6,276c-3.6,3-9,2.5-12-1.1-2.6-3.2-2.6-7.8,0-10.9,3.3-3.3,8.7-3.3,12,0,3.3,3.3,3.3,8.7,0,12,0,0,0,0,0,0ZM147.3,492.5l-23.8-23.8,23.8-23.8,23.8,23.8-23.8,23.8Z"/>
</svg>