<svg id="Planning" viewBox="0 0 64 64" xmlns="http://www.w3.org/2000/svg"><path d="m49 9h-6.14c-.45-1.72-2-3-3.86-3h-2v-1c0-1.65-1.35-3-3-3h-4c-1.65 0-3 1.35-3 3v1h-2c-1.86 0-3.41 1.28-3.86 3h-6.14c-2.76 0-5 2.24-5 5v43c0 2.76 2.24 5 5 5h34c2.76 0 5-2.24 5-5v-43c0-2.76-2.24-5-5-5zm-24-1h3c.55 0 1-.45 1-1v-2c0-.55.45-1 1-1h4c.55 0 1 .45 1 1v2c0 .55.45 1 1 1h3c1.1 0 2 .9 2 2v1c0 .55-.45 1-1 1h-16c-.55 0-1-.45-1-1v-1c0-1.1.9-2 2-2zm-4 3c0 1.65 1.35 3 3 3h16c1.65 0 3-1.35 3-3h5v45h-32v-45zm31 46c0 1.65-1.35 3-3 3h-34c-1.65 0-3-1.35-3-3v-43c0-1.3.84-2.4 2-2.82v45.82c0 .55.45 1 1 1h34c.55 0 1-.45 1-1v-45.82c1.16.41 2 1.51 2 2.82z"/><path d="m21.29 25.71c.19.19.44.29.71.29h.05c.28-.01.54-.14.72-.36l5-6c.35-.42.3-1.05-.13-1.41s-1.06-.3-1.41.13l-4.3 5.16-1.23-1.23c-.39-.39-1.02-.39-1.41 0s-.39 1.02 0 1.41l2 2z"/><path d="m32 22h12c.55 0 1-.45 1-1s-.45-1-1-1h-12c-.55 0-1 .45-1 1s.45 1 1 1z"/><path d="m32 26h6c.55 0 1-.45 1-1s-.45-1-1-1h-6c-.55 0-1 .45-1 1s.45 1 1 1z"/><path d="m21.29 37.71c.19.19.44.29.71.29h.05c.28-.01.54-.14.72-.36l5-6c.35-.42.3-1.05-.13-1.41-.42-.35-1.06-.3-1.41.13l-4.3 5.16-1.23-1.23c-.39-.39-1.02-.39-1.41 0s-.39 1.02 0 1.41l2 2z"/><path d="m32 34h12c.55 0 1-.45 1-1s-.45-1-1-1h-12c-.55 0-1 .45-1 1s.45 1 1 1z"/><path d="m32 38h6c.55 0 1-.45 1-1s-.45-1-1-1h-6c-.55 0-1 .45-1 1s.45 1 1 1z"/><path d="m32 46h12c.55 0 1-.45 1-1s-.45-1-1-1h-12c-.55 0-1 .45-1 1s.45 1 1 1z"/><path d="m32 50h6c.55 0 1-.45 1-1s-.45-1-1-1h-6c-.55 0-1 .45-1 1s.45 1 1 1z"/><path d="m26 43h-4c-1.1 0-2 .9-2 2v4c0 1.1.9 2 2 2h4c1.1 0 2-.9 2-2v-4c0-1.1-.9-2-2-2zm-4 6v-4h4v4s-4 0-4 0z"/></svg>